<svg width="24" height="24" viewBox="0 0 24 24" fill="none" xmlns="http://www.w3.org/2000/svg">
<path d="M16.0497 7.66504C16.9533 7.66504 17.9494 8.08185 18.7744 8.86426C15.951 11.0613 16.474 15.4542 19.4824 17.1133C19.199 17.7246 18.9802 18.1304 18.5439 18.7959L18.5429 18.7969C18.1375 19.4198 17.6765 20.0713 17.1611 20.5654C16.6407 21.0642 16.1423 21.3282 15.6611 21.335H15.6591C15.2339 21.3422 14.9759 21.2252 14.5536 21.0342L14.5527 21.0332L14.1445 20.8555C13.7043 20.6756 13.1481 20.5069 12.3398 20.5146C11.5351 20.5147 10.977 20.6763 10.5312 20.8545L10.1181 21.0332C9.68794 21.2233 9.41887 21.3422 8.98138 21.335H8.97943C8.49209 21.3281 8.00956 21.0851 7.51654 20.6309C7.02354 20.1766 6.58049 19.5662 6.17767 18.9473C5.08981 17.2751 4.49165 15.467 4.33099 13.8301C4.17933 12.2847 4.42087 10.944 4.94916 10.0117L5.05853 9.83105C5.96789 8.42677 7.3631 7.66513 8.58978 7.66504C9.25996 7.66504 9.80004 7.85377 10.414 8.0752L10.416 8.07617C10.9594 8.27024 11.5966 8.50488 12.33 8.50488C13.0283 8.50488 13.5857 8.2879 14.0761 8.10156L14.082 8.09961C14.6568 7.87551 15.2201 7.66508 16.0497 7.66504Z" fill="white" stroke="white" stroke-width="1.33"/>
<path d="M15.1802 2.82227C15.0958 3.45073 14.8086 4.06078 14.4351 4.54199L14.4322 4.54492C14.0356 5.06096 13.426 5.47178 12.8091 5.63281C12.8798 5.01894 13.1851 4.39872 13.5797 3.91699C13.983 3.43533 14.5883 3.03462 15.1802 2.82227Z" fill="white" stroke="white" stroke-width="1.33"/>
</svg>
