<svg width="24" height="24" viewBox="0 0 24 24" fill="none" xmlns="http://www.w3.org/2000/svg">
<path d="M21.102 11.6543L21.1118 11.6592C21.3929 11.7944 21.4079 12.2041 21.1059 12.3535L21.103 12.3555L18.4243 13.6943L16.7554 12.0254L18.4546 10.3252L21.102 11.6543Z" fill="white" stroke="white" stroke-width="1.33"/>
<path d="M15.7969 8.98193L14.2901 10.4897L13.6944 11.0845L7.38675 4.77686L15.7969 8.98193Z" fill="white" stroke="white" stroke-width="1.33"/>
<path d="M2 20.1501V3.48008C2 3.04008 2.53 2.81007 2.85 3.12007L11.62 11.6301C11.83 11.8301 11.82 12.1601 11.61 12.3601L2.84 20.5201C2.52 20.8201 2 20.5901 2 20.1501Z" fill="white"/>
<path d="M16.27 15.52L6.88 20.22C6.37 20.47 5.9 19.82 6.3 19.42L13.35 12.37C13.55 12.17 13.86 12.17 14.06 12.37L16.41 14.72C16.64 14.96 16.57 15.37 16.27 15.52Z" fill="white"/>
</svg>
