<svg width="22" height="22" viewBox="0 0 22 22" fill="none" xmlns="http://www.w3.org/2000/svg">
<path d="M3.25 8.25H2.75C1.80719 8.25 1.33579 8.25 1.04289 8.54289C0.75 8.8358 0.75 9.3072 0.75 10.25V18.75C0.75 19.6928 0.75 20.1642 1.04289 20.4571C1.33579 20.75 1.80719 20.75 2.75 20.75H3.25C4.19281 20.75 4.66421 20.75 4.95711 20.4571C5.25 20.1642 5.25 19.6928 5.25 18.75V10.25C5.25 9.3072 5.25 8.8358 4.95711 8.54289C4.66421 8.25 4.19281 8.25 3.25 8.25Z" stroke="#1E1B4B" stroke-width="1.5"/>
<path d="M3.25 8.25H2.75C1.80719 8.25 1.33579 8.25 1.04289 8.54289C0.75 8.8358 0.75 9.3072 0.75 10.25V18.75C0.75 19.6928 0.75 20.1642 1.04289 20.4571C1.33579 20.75 1.80719 20.75 2.75 20.75H3.25C4.19281 20.75 4.66421 20.75 4.95711 20.4571C5.25 20.1642 5.25 19.6928 5.25 18.75V10.25C5.25 9.3072 5.25 8.8358 4.95711 8.54289C4.66421 8.25 4.19281 8.25 3.25 8.25Z" stroke="black" stroke-opacity="0.2" stroke-width="1.5"/>
<path d="M5.25 3C5.25 4.24264 4.24264 5.25 3 5.25C1.75736 5.25 0.75 4.24264 0.75 3C0.75 1.75736 1.75736 0.75 3 0.75C4.24264 0.75 5.25 1.75736 5.25 3Z" stroke="#1E1B4B" stroke-width="1.5"/>
<path d="M5.25 3C5.25 4.24264 4.24264 5.25 3 5.25C1.75736 5.25 0.75 4.24264 0.75 3C0.75 1.75736 1.75736 0.75 3 0.75C4.24264 0.75 5.25 1.75736 5.25 3Z" stroke="black" stroke-opacity="0.2" stroke-width="1.5"/>
<path d="M11.076 8.25H10.25C9.3072 8.25 8.8358 8.25 8.54289 8.54289C8.25 8.8358 8.25 9.3072 8.25 10.25V18.75C8.25 19.6928 8.25 20.1642 8.54289 20.4571C8.8358 20.75 9.3072 20.75 10.25 20.75H10.75C11.6928 20.75 12.1642 20.75 12.4571 20.4571C12.75 20.1642 12.75 19.6928 12.75 18.75L12.7501 15.2501C12.7501 13.5933 13.2781 12.2501 14.8379 12.2501C15.6177 12.2501 16.25 12.9217 16.25 13.7501V18.2501C16.25 19.1929 16.25 19.6643 16.5429 19.9572C16.8357 20.2501 17.3072 20.2501 18.25 20.2501H18.7487C19.6913 20.2501 20.1626 20.2501 20.4555 19.9573C20.7484 19.6645 20.7485 19.1932 20.7487 18.2506L20.7501 12.7502C20.7501 10.265 18.3864 8.25024 16.0468 8.25024C14.7149 8.25024 13.5267 8.9031 12.7501 9.924C12.75 9.2939 12.75 8.9789 12.6132 8.745C12.5265 8.59686 12.4031 8.47353 12.255 8.38687C12.0211 8.25 11.7061 8.25 11.076 8.25Z" stroke="#1E1B4B" stroke-width="1.5" stroke-linejoin="round"/>
<path d="M11.076 8.25H10.25C9.3072 8.25 8.8358 8.25 8.54289 8.54289C8.25 8.8358 8.25 9.3072 8.25 10.25V18.75C8.25 19.6928 8.25 20.1642 8.54289 20.4571C8.8358 20.75 9.3072 20.75 10.25 20.75H10.75C11.6928 20.75 12.1642 20.75 12.4571 20.4571C12.75 20.1642 12.75 19.6928 12.75 18.75L12.7501 15.2501C12.7501 13.5933 13.2781 12.2501 14.8379 12.2501C15.6177 12.2501 16.25 12.9217 16.25 13.7501V18.2501C16.25 19.1929 16.25 19.6643 16.5429 19.9572C16.8357 20.2501 17.3072 20.2501 18.25 20.2501H18.7487C19.6913 20.2501 20.1626 20.2501 20.4555 19.9573C20.7484 19.6645 20.7485 19.1932 20.7487 18.2506L20.7501 12.7502C20.7501 10.265 18.3864 8.25024 16.0468 8.25024C14.7149 8.25024 13.5267 8.9031 12.7501 9.924C12.75 9.2939 12.75 8.9789 12.6132 8.745C12.5265 8.59686 12.4031 8.47353 12.255 8.38687C12.0211 8.25 11.7061 8.25 11.076 8.25Z" stroke="black" stroke-opacity="0.2" stroke-width="1.5" stroke-linejoin="round"/>
</svg>
