<svg width="22" height="19" viewBox="0 0 22 19" fill="none" xmlns="http://www.w3.org/2000/svg">
<path d="M10.7501 17.75C12.5598 17.75 14.2952 17.5712 15.9035 17.2434C17.9124 16.8339 18.9169 16.6291 19.8335 15.4506C20.7501 14.2721 20.7501 12.9193 20.7501 10.2135V8.2865C20.7501 5.58073 20.7501 4.22787 19.8335 3.04937C18.9169 1.87088 17.9124 1.66613 15.9035 1.25662C14.2952 0.92877 12.5598 0.75 10.7501 0.75C8.94042 0.75 7.20501 0.92877 5.59668 1.25662C3.58778 1.66613 2.58333 1.87088 1.66672 3.04937C0.750122 4.22787 0.750122 5.58073 0.750122 8.2865V10.2135C0.750122 12.9193 0.750122 14.2721 1.66672 15.4506C2.58333 16.6291 3.58778 16.8339 5.59668 17.2434C7.20501 17.5712 8.94042 17.75 10.7501 17.75Z" stroke="#1E1B4B" stroke-width="1.5"/>
<path d="M10.7501 17.75C12.5598 17.75 14.2952 17.5712 15.9035 17.2434C17.9124 16.8339 18.9169 16.6291 19.8335 15.4506C20.7501 14.2721 20.7501 12.9193 20.7501 10.2135V8.2865C20.7501 5.58073 20.7501 4.22787 19.8335 3.04937C18.9169 1.87088 17.9124 1.66613 15.9035 1.25662C14.2952 0.92877 12.5598 0.75 10.7501 0.75C8.94042 0.75 7.20501 0.92877 5.59668 1.25662C3.58778 1.66613 2.58333 1.87088 1.66672 3.04937C0.750122 4.22787 0.750122 5.58073 0.750122 8.2865V10.2135C0.750122 12.9193 0.750122 14.2721 1.66672 15.4506C2.58333 16.6291 3.58778 16.8339 5.59668 17.2434C7.20501 17.5712 8.94042 17.75 10.7501 17.75Z" stroke="black" stroke-opacity="0.2" stroke-width="1.5"/>
<path d="M14.7122 9.5629C14.5638 10.1687 13.7742 10.6038 12.195 11.4741C10.4773 12.4205 9.61852 12.8938 8.92292 12.7115C8.68732 12.6497 8.47032 12.5411 8.28811 12.3938C7.75012 11.9589 7.75012 11.0559 7.75012 9.25C7.75012 7.4441 7.75012 6.54112 8.28811 6.10618C8.47032 5.95886 8.68732 5.85029 8.92292 5.78854C9.61852 5.60621 10.4773 6.07945 12.195 7.02593C13.7742 7.8962 14.5638 8.3313 14.7122 8.9371C14.7627 9.1433 14.7627 9.3567 14.7122 9.5629Z" stroke="#1E1B4B" stroke-width="1.5" stroke-linejoin="round"/>
<path d="M14.7122 9.5629C14.5638 10.1687 13.7742 10.6038 12.195 11.4741C10.4773 12.4205 9.61852 12.8938 8.92292 12.7115C8.68732 12.6497 8.47032 12.5411 8.28811 12.3938C7.75012 11.9589 7.75012 11.0559 7.75012 9.25C7.75012 7.4441 7.75012 6.54112 8.28811 6.10618C8.47032 5.95886 8.68732 5.85029 8.92292 5.78854C9.61852 5.60621 10.4773 6.07945 12.195 7.02593C13.7742 7.8962 14.5638 8.3313 14.7122 8.9371C14.7627 9.1433 14.7627 9.3567 14.7122 9.5629Z" stroke="black" stroke-opacity="0.2" stroke-width="1.5" stroke-linejoin="round"/>
</svg>
