<svg width="42" height="66" viewBox="0 0 42 66" fill="none" xmlns="http://www.w3.org/2000/svg">
<path d="M41.9123 16.8959C41.9123 11.4051 36.6005 7.48015 31.3519 9.09252L11.6138 15.156C8.18674 16.2088 5.84766 19.3743 5.84766 22.9594V54.2587C5.84766 59.7495 11.1594 63.6744 16.4081 62.0621L36.1462 55.9986C39.5732 54.9458 41.9123 51.7803 41.9123 48.1952V16.8959Z" fill="#312E81"/>
<path d="M38.9882 13.8868C38.9882 8.4213 33.7218 4.49966 28.4856 6.0659L7.77275 12.2613C4.31662 13.2951 1.94881 16.4748 1.94881 20.0823V51.4199C1.94881 56.8854 7.21514 60.807 12.4514 59.2408L33.1642 53.0453C36.6203 52.0116 38.9882 48.8319 38.9882 45.2244V13.8868Z" fill="#FDE047"/>
<path d="M36.0646 11.0475C36.0646 5.55675 30.7529 1.63176 25.5042 3.24413L5.7661 9.3076C2.33908 10.3604 3.8147e-06 13.5259 3.8147e-06 17.111V48.4103C3.8147e-06 53.9011 5.31178 57.8261 10.5604 56.2137L30.2985 50.1502C33.7256 49.0974 36.0646 45.9319 36.0646 42.3468V11.0475Z" fill="#1E1B4B"/>
<path d="M36.0646 11.0475C36.0646 5.55675 30.7529 1.63176 25.5042 3.24413L5.7661 9.3076C2.33908 10.3604 3.8147e-06 13.5259 3.8147e-06 17.111V48.4103C3.8147e-06 53.9011 5.31178 57.8261 10.5604 56.2137L30.2985 50.1502C33.7256 49.0974 36.0646 45.9319 36.0646 42.3468V11.0475Z" fill="black" fill-opacity="0.2"/>
</svg>
