<svg width="17" height="17" viewBox="0 0 17 17" fill="none" xmlns="http://www.w3.org/2000/svg">
<path d="M12.589 13.579L11.316 7.77959L13.7913 5.30423C14.8522 4.24336 15.2058 2.82887 14.8522 2.12162C14.145 1.768 12.7305 2.12162 11.6696 3.18249L9.19423 5.65785L3.39481 4.38481C3.04119 4.31409 2.75829 4.45554 2.61684 4.73843L2.40466 5.09206C2.26321 5.44568 2.33394 5.7993 2.61684 6.01148L6.36524 8.48684L4.95075 10.6086H2.82901L2.12177 11.3158L4.2435 12.7303L5.658 14.8521L6.36524 14.1448V12.0231L8.48698 10.6086L10.9623 14.357C11.1745 14.6399 11.5281 14.7106 11.8818 14.5692L12.2354 14.4277C12.5183 14.2155 12.6597 13.9326 12.589 13.579Z" stroke="#737373" stroke-width="1.27304" stroke-linecap="round" stroke-linejoin="round"/>
</svg>
