<svg width="855" height="738" viewBox="0 0 855 738" fill="none" xmlns="http://www.w3.org/2000/svg">
<path d="M585.245 142.88C639.098 44.7589 708.962 -13.1016 767.329 2.53735C851.69 25.142 880.084 192.732 830.746 376.861C781.409 560.989 673.025 691.93 588.663 669.325C552.046 659.514 525.973 622.385 512.225 568.445C458.371 666.566 388.509 724.427 330.142 708.788C295.832 699.595 270.779 666.42 256.448 617.905C204.72 701.985 141.325 749.76 87.6508 735.378C3.28938 712.773 -25.104 545.184 24.2328 361.056C73.5698 176.928 181.954 45.9866 266.316 68.5911C300.626 77.7844 325.677 110.959 340.008 159.475C391.736 75.3936 455.133 27.6193 508.807 42.0012C545.425 51.813 571.496 88.9408 585.245 142.88Z" fill="#E0E7FF"/>
</svg>
