<svg width="1728" height="647" viewBox="0 0 1728 647" fill="none" xmlns="http://www.w3.org/2000/svg">
<path d="M-66.9897 470.139C-67.1898 470.009 -64.6909 465.504 -39.2405 435.923C-17.3108 410.434 26.624 365.064 63.84 331.123C101.056 297.181 131.168 276.399 149.737 264.336C173.472 248.917 187.795 244.388 208.341 238.898C221.56 235.366 241.438 232.007 268.56 229.374C329.335 223.476 371.91 224.255 386.687 225.185C425.981 227.658 457.845 238.624 461.553 241.66C464.906 244.406 464.99 265.045 465.567 297.053C466.183 331.297 449.724 346.637 431.739 363.124C421.983 372.068 401.535 381.983 368.519 396.259C349.185 404.62 322.801 413.395 298.416 424.474C250.015 446.463 220.389 465.014 203.194 471.974C195.007 475.289 187.369 477.571 186.057 476.968C184.746 476.365 189.853 472.657 238.511 445.716C287.17 418.775 379.225 368.713 481.445 320.996C583.664 273.28 693.26 229.427 758.461 204.41C839.929 173.152 861.719 169.16 866.777 169.065C872.028 168.967 889.353 184.159 912.923 204.683C923.586 213.968 922.7 231.098 921.166 255.337C920.193 270.715 913.84 280.352 907.803 288.651C901.992 296.637 888.243 305.553 853.146 321.399C828.161 332.68 784.96 346.896 727.816 364.95C670.671 383.005 599.96 403.535 562.281 414.669C516.864 428.09 512.104 433.399 500.913 446.621C491.338 457.933 475.039 479.008 589.061 443.217C703.083 407.425 948.223 314.237 1086.85 264.415C1225.47 214.594 1250.15 210.963 1267.76 209.372C1294.95 206.915 1307.9 209.825 1312.73 212.43C1318.45 215.51 1317.96 228.065 1315.92 247.992C1313.48 271.796 1305.65 289.351 1301.58 298.022C1298.12 305.418 1290.45 312.976 1273.53 327.101C1261.67 337.01 1241.45 351.604 1218.2 366.176C1194.95 380.749 1168.84 394.634 1148.09 404.341C1127.35 414.049 1112.75 419.158 1094.14 423.909C1075.54 428.661 1053.37 432.899 1029.37 436.524C1005.37 440.148 980.216 443.031 1062.31 401.353C1144.4 359.675 1334.5 273.351 1435.49 228.223C1536.47 183.095 1542.58 181.78 1549.53 180.698C1556.47 179.615 1564.06 178.805 1570.26 178.361C1581 177.593 1597.06 205.037 1614.41 251.307C1625.11 279.842 1620.17 299.512 1616.32 317.026C1612.46 334.533 1598.66 349.785 1583.75 363.1C1568.1 377.085 1546.27 381.755 1523.18 387.324C1506.38 391.374 1478.73 396.914 1451.86 404.033C1425 411.151 1399.61 419.425 1377.32 428.103C1355.02 436.781 1336.59 445.612 1399.44 410.38C1462.3 375.148 1607.01 295.586 1687.4 254.524C1767.78 213.462 1779.46 213.312 1785.91 218.512C1801.77 231.312 1791.15 254.448 1780.93 277.299C1762.16 308.333 1747.38 329.2 1741.23 334.743C1738.01 337.442 1734.57 339.909 1730.24 342.77" stroke="#E0E7FF" stroke-width="338.131" stroke-linecap="round"/>
</svg>
