<svg width="1728" height="1014" viewBox="0 0 1728 1014" fill="none" xmlns="http://www.w3.org/2000/svg">
<path d="M-26 803.117C-16.252 802.953 14.9704 797.089 61.3938 768.436C90.1946 750.661 114.801 724.983 139.379 699.422C152.042 686.252 163.705 671.378 189.061 633.117C214.417 594.855 252.759 533.324 274.355 502.234C295.951 471.144 299.64 472.36 342.569 512.86C385.498 553.361 467.556 633.109 515.039 678.326C572.121 732.683 592.553 745.953 609.931 755.747C625.329 764.424 642.171 763.815 658.616 758.474C678.622 751.976 697.162 726.451 744.397 648.529C782.514 585.648 841.522 470.796 875.296 415.327C909.07 359.858 913.821 366.079 925.196 385.223C936.572 404.368 954.428 436.247 972.033 464.07C989.638 491.893 1006.45 514.694 1032.2 543.512C1057.96 572.33 1092.14 606.473 1116.79 627.968C1153.4 659.888 1181.51 668.299 1204.4 671.569C1215.71 673.184 1226.84 669.386 1238.55 662.186C1250.25 654.985 1262.31 643.136 1305.65 572.342C1349 501.549 1423.27 372.17 1466.99 298.86C1510.71 225.551 1521.64 212.231 1528 210.645C1539.54 207.766 1547.66 253.64 1569.28 295.911C1592.47 329.395 1624.91 356.329 1673.63 378.317C1702.19 388.177 1738.54 395.4 1776 402.842" stroke="#E0E7FF" stroke-width="420.795" stroke-linecap="round"/>
</svg>
