<svg width="16" height="22" viewBox="0 0 16 22" fill="none" xmlns="http://www.w3.org/2000/svg">
<path fill-rule="evenodd" clip-rule="evenodd" d="M1.93182 9.0833C0.95406 9.0833 0.75 9.2752 0.75 10.1944V11.8611C0.75 12.7804 0.95406 12.9722 1.93182 12.9722H4.29545V19.6389C4.29545 20.5581 4.49951 20.75 5.47727 20.75H7.8409C8.8187 20.75 9.0227 20.5581 9.0227 19.6389V12.9722H11.6767C12.4183 12.9722 12.6094 12.8367 12.8131 12.1664L13.3196 10.4997C13.6685 9.3514 13.4535 9.0833 12.1832 9.0833H9.0227V6.30556C9.0227 5.69191 9.5518 5.19444 10.2045 5.19444H13.5682C14.5459 5.19444 14.75 5.00259 14.75 4.08333V1.86111C14.75 0.94185 14.5459 0.75 13.5682 0.75H10.2045C6.941 0.75 4.29545 3.23731 4.29545 6.30556V9.0833H1.93182Z" stroke="#1E1B4B" stroke-width="1.5" stroke-linejoin="round"/>
<path fill-rule="evenodd" clip-rule="evenodd" d="M1.93182 9.0833C0.95406 9.0833 0.75 9.2752 0.75 10.1944V11.8611C0.75 12.7804 0.95406 12.9722 1.93182 12.9722H4.29545V19.6389C4.29545 20.5581 4.49951 20.75 5.47727 20.75H7.8409C8.8187 20.75 9.0227 20.5581 9.0227 19.6389V12.9722H11.6767C12.4183 12.9722 12.6094 12.8367 12.8131 12.1664L13.3196 10.4997C13.6685 9.3514 13.4535 9.0833 12.1832 9.0833H9.0227V6.30556C9.0227 5.69191 9.5518 5.19444 10.2045 5.19444H13.5682C14.5459 5.19444 14.75 5.00259 14.75 4.08333V1.86111C14.75 0.94185 14.5459 0.75 13.5682 0.75H10.2045C6.941 0.75 4.29545 3.23731 4.29545 6.30556V9.0833H1.93182Z" stroke="black" stroke-opacity="0.2" stroke-width="1.5" stroke-linejoin="round"/>
</svg>
